<svg width="397" height="204" viewBox="0 0 397 204" fill="none" xmlns="http://www.w3.org/2000/svg">
<g clip-path="url(#clip0)">
<path d="M61 81.8287L87.771 68.9753V27.8801L61 17.9224V81.8293V81.8287ZM104.503 5.2499V91.1526L134.469 76.1266V20.6384L104.503 5.2499ZM151.05 0V96.8554L181.015 78.5706V18.0134L151.049 0H151.05ZM290.23 27.8801V68.9753L317.001 81.8293V17.9218L290.23 27.8801V27.8801ZM273.497 5.2499V91.1526L243.531 76.1266V20.6384L273.497 5.2499V5.2499ZM226.95 0L196.984 18.0134V78.5706L226.95 96.8554V0Z" fill="#12A29B"/>
</g>
<g filter="url(#filter0_d)">
<path d="M75.1631 116.428C75.1631 115.616 74.8201 114.965 74.1343 114.476C73.4484 113.986 72.2796 113.545 70.6279 113.153C68.9762 112.761 67.5835 112.348 66.4497 111.914C65.3299 111.466 64.4061 110.941 63.6782 110.339C62.9504 109.737 62.4115 109.045 62.0615 108.261C61.7116 107.463 61.5366 106.518 61.5366 105.426C61.5366 103.327 62.4115 101.598 64.1611 100.24C65.9108 98.8825 68.1644 98.2036 70.9219 98.2036C73.9313 98.2036 76.3599 98.8895 78.2075 100.261C80.0692 101.619 81 103.481 81 105.846H74.9321C74.9321 104.95 74.5682 104.201 73.8403 103.6C73.1265 102.998 72.1606 102.697 70.9429 102.697C69.8651 102.697 68.9902 102.935 68.3184 103.411C67.6465 103.887 67.3105 104.481 67.3105 105.195C67.3105 105.909 67.6605 106.49 68.3604 106.938C69.0602 107.372 70.222 107.792 71.8457 108.198C75.1071 108.912 77.4377 109.898 78.8374 111.158C80.2511 112.418 80.958 114.119 80.958 116.26C80.958 118.444 80.0972 120.173 78.3755 121.446C76.6538 122.706 74.3022 123.336 71.3208 123.336C69.2912 123.336 67.4575 123.007 65.8198 122.349C64.1821 121.691 62.9154 120.753 62.0195 119.536C61.1377 118.318 60.6968 116.876 60.6968 115.21H66.7856C66.7856 116.512 67.1846 117.45 67.9824 118.024C68.7943 118.598 70.005 118.885 71.6147 118.885C72.7065 118.885 73.5674 118.661 74.1973 118.213C74.8411 117.765 75.1631 117.17 75.1631 116.428ZM90.7002 114.958V123H84.6113V98.5396H95.0464C97.034 98.5396 98.7977 98.8965 100.337 99.6104C101.877 100.31 103.06 101.311 103.886 102.613C104.726 103.915 105.146 105.384 105.146 107.022C105.146 109.444 104.229 111.375 102.395 112.817C100.561 114.245 98.0768 114.958 94.9414 114.958H90.7002ZM90.7002 110.066H95.0464C96.3341 110.066 97.328 109.8 98.0278 109.269C98.7417 108.737 99.0986 108.002 99.0986 107.064C99.0986 105.986 98.7417 105.118 98.0278 104.46C97.328 103.803 96.3551 103.467 95.1094 103.453H90.7002V110.066ZM124.819 112.817H114.72V118.129H126.604V123H108.631V98.5396H126.625V103.453H114.72V107.925H124.819V112.817ZM150.497 114.623C150.329 117.296 149.272 119.417 147.327 120.984C145.395 122.552 142.847 123.336 139.684 123.336C136.283 123.336 133.602 122.3 131.643 120.229C129.697 118.143 128.696 115.273 128.64 111.62V110.234C128.64 106.581 129.627 103.663 131.601 101.479C133.588 99.2954 136.269 98.2036 139.642 98.2036C142.806 98.2036 145.339 98.9945 147.243 100.576C149.146 102.158 150.238 104.341 150.518 107.127H144.45C144.31 104.439 142.708 103.096 139.642 103.096C136.451 103.096 134.806 105.328 134.708 109.793V111.347C134.708 113.853 135.093 115.665 135.863 116.785C136.647 117.905 137.92 118.465 139.684 118.465C141.21 118.465 142.358 118.157 143.127 117.541C143.911 116.925 144.338 115.952 144.408 114.623H150.497ZM174.055 103.453H166.118V123H160.029V103.453H152.24V98.5396H174.055V103.453ZM192.048 118.339H182.579L180.857 123H174.769L184.448 98.5396H190.159L199.922 123H193.791L192.048 118.339ZM184.217 113.888H190.369L187.282 105.615L184.217 113.888ZM222.808 114.623C222.64 117.296 221.583 119.417 219.637 120.984C217.706 122.552 215.158 123.336 211.995 123.336C208.593 123.336 205.913 122.3 203.953 120.229C202.007 118.143 201.007 115.273 200.951 111.62V110.234C200.951 106.581 201.938 103.663 203.911 101.479C205.899 99.2954 208.579 98.2036 211.953 98.2036C215.116 98.2036 217.65 98.9945 219.553 100.576C221.457 102.158 222.549 104.341 222.829 107.127H216.761C216.621 104.439 215.018 103.096 211.953 103.096C208.761 103.096 207.117 105.328 207.019 109.793V111.347C207.019 113.853 207.403 115.665 208.173 116.785C208.957 117.905 210.231 118.465 211.995 118.465C213.52 118.465 214.668 118.157 215.438 117.541C216.222 116.925 216.649 115.952 216.719 114.623H222.808ZM246.386 98.5396V114.371C246.386 117.156 245.483 119.347 243.678 120.942C241.872 122.538 239.36 123.336 236.14 123.336C232.935 123.336 230.415 122.538 228.582 120.942C226.748 119.347 225.831 117.163 225.831 114.392V98.5396H231.92V114.686C232.004 117.205 233.411 118.465 236.14 118.465C237.498 118.465 238.527 118.15 239.227 117.52C239.94 116.89 240.297 115.854 240.297 114.413V98.5396H246.386ZM256.569 118.129H267.718V123H250.48V98.5396H256.569V118.129ZM285.691 118.339H276.222L274.5 123H268.411L278.09 98.5396H283.801L293.564 123H287.434L285.691 118.339ZM277.859 113.888H284.011L280.925 105.615L277.859 113.888ZM305.511 114.56H301.711V123H295.622V98.5396H305.826C308.934 98.5396 311.355 99.1834 313.091 100.471C314.826 101.745 315.694 103.551 315.694 105.888C315.694 107.624 315.33 109.059 314.603 110.192C313.889 111.312 312.72 112.229 311.096 112.943L316.639 122.748V123H310.088L305.511 114.56ZM301.711 109.667H305.826C308.36 109.667 309.626 108.625 309.626 106.539C309.626 104.481 308.304 103.453 305.658 103.453H301.711V109.667Z" fill="url(#paint0_linear)"/>
</g>
<defs>
<filter id="filter0_d" x="0.696777" y="38.2036" width="395.942" height="165.132" filterUnits="userSpaceOnUse" color-interpolation-filters="sRGB">
<feFlood flood-opacity="0" result="BackgroundImageFix"/>
<feColorMatrix in="SourceAlpha" type="matrix" values="0 0 0 0 0 0 0 0 0 0 0 0 0 0 0 0 0 0 127 0"/>
<feOffset dx="10" dy="10"/>
<feGaussianBlur stdDeviation="35"/>
<feColorMatrix type="matrix" values="0 0 0 0 0 0 0 0 0 0 0 0 0 0 0 0 0 0 0.25 0"/>
<feBlend mode="normal" in2="BackgroundImageFix" result="effect1_dropShadow"/>
<feBlend mode="normal" in="SourceGraphic" in2="effect1_dropShadow" result="shape"/>
</filter>
<linearGradient id="paint0_linear" x1="313.5" y1="101.5" x2="74.5" y2="108" gradientUnits="userSpaceOnUse">
<stop stop-color="#2B8D79"/>
<stop offset="1" stop-color="#287F81" stop-opacity="0.8"/>
</linearGradient>
<clipPath id="clip0">
<rect width="256" height="97" fill="white" transform="translate(61)"/>
</clipPath>
</defs>
</svg>
